<?xml version="1.0" standalone="no"?>
<!DOCTYPE svg PUBLIC "-//W3C//DTD SVG 20010904//EN"
 "http://www.w3.org/TR/2001/REC-SVG-20010904/DTD/svg10.dtd">
<svg version="1.0" xmlns="http://www.w3.org/2000/svg"
 width="1000.000000pt" height="1000.000000pt" viewBox="0 0 1000.000000 1000.000000"
 preserveAspectRatio="xMidYMid meet">
<metadata>
Created by potrace 1.16, written by Peter Selinger 2001-2019
</metadata>
<g transform="translate(0.000000,1000.000000) scale(0.100000,-0.100000)"
fill="rgb(120,0,44)" stroke="none">
<path d="M4700 9581 c0 -5 -42 -11 -92 -14 -98 -5 -323 -33 -338 -42 -12 -7
-149 -27 -182 -26 -16 0 -28 -4 -28 -9 0 -5 -26 -11 -57 -15 -32 -3 -67 -10
-78 -14 -21 -9 -182 -56 -250 -73 -22 -5 -53 -16 -70 -22 -16 -7 -57 -21 -90
-32 -33 -10 -63 -23 -66 -28 -4 -5 -15 -6 -24 -2 -9 3 -23 -1 -31 -9 -9 -8
-26 -15 -40 -15 -13 0 -24 -4 -24 -10 0 -5 -16 -12 -35 -16 -19 -3 -35 -10
-35 -15 0 -5 -6 -9 -12 -9 -7 -1 -31 -9 -53 -20 -22 -11 -46 -19 -52 -20 -7 0
-13 -4 -13 -8 0 -4 -31 -19 -70 -32 -38 -13 -70 -28 -70 -33 0 -5 -6 -7 -12
-4 -7 2 -21 -5 -30 -15 -9 -11 -22 -17 -27 -13 -6 3 -11 2 -11 -2 0 -5 -25
-20 -55 -34 -30 -13 -55 -27 -55 -31 0 -3 -13 -9 -29 -13 -16 -3 -32 -13 -35
-21 -3 -8 -12 -14 -21 -14 -8 0 -15 -4 -15 -9 0 -5 -13 -12 -30 -16 -16 -4
-30 -10 -30 -15 0 -9 -40 -34 -72 -46 -10 -3 -18 -10 -18 -15 0 -5 -6 -6 -14
-3 -7 3 -16 -2 -19 -10 -4 -9 -13 -16 -21 -16 -7 0 -16 -7 -20 -15 -3 -8 -12
-15 -21 -15 -8 0 -15 -4 -15 -9 0 -5 -10 -13 -22 -16 -11 -4 -31 -18 -43 -31
-12 -13 -27 -24 -33 -24 -6 0 -15 -8 -21 -17 -5 -10 -13 -15 -17 -11 -3 4 -15
-4 -26 -17 -11 -14 -26 -25 -34 -25 -8 0 -17 -7 -20 -15 -3 -8 -15 -17 -27
-21 -12 -4 -32 -20 -46 -35 -14 -16 -30 -29 -35 -29 -5 0 -27 -20 -50 -45 -24
-25 -45 -45 -49 -45 -15 0 -117 -97 -117 -112 0 -4 -6 -8 -14 -8 -17 0 -226
-203 -226 -218 0 -11 -30 -42 -94 -100 -20 -18 -36 -37 -36 -42 0 -5 -20 -29
-44 -53 -24 -25 -47 -53 -50 -64 -4 -11 -18 -26 -31 -33 -14 -7 -25 -21 -25
-31 0 -10 -9 -23 -20 -29 -11 -6 -20 -16 -20 -22 0 -6 -12 -22 -26 -35 -14
-13 -24 -27 -20 -30 3 -3 -3 -13 -14 -20 -11 -8 -18 -18 -15 -23 3 -5 -6 -17
-20 -28 -14 -11 -25 -27 -25 -36 0 -9 -7 -19 -15 -22 -8 -4 -15 -13 -15 -20 0
-8 -6 -17 -14 -20 -8 -3 -17 -16 -20 -30 -4 -13 -10 -24 -15 -24 -5 0 -12 -13
-16 -29 -3 -16 -13 -32 -21 -35 -8 -3 -14 -12 -14 -21 0 -8 -4 -15 -10 -15 -5
0 -7 -6 -4 -14 3 -9 -3 -17 -16 -21 -13 -4 -19 -12 -16 -21 3 -8 1 -14 -4 -14
-6 0 -10 -6 -10 -14 0 -7 -6 -19 -14 -25 -8 -7 -17 -23 -21 -38 -3 -14 -13
-32 -20 -40 -8 -8 -15 -23 -15 -34 0 -10 -4 -19 -8 -19 -7 0 -38 -57 -100
-190 -10 -19 -20 -36 -24 -38 -4 -2 -4 -10 -1 -18 3 -8 0 -14 -6 -14 -6 0 -11
-6 -11 -12 -1 -7 -9 -31 -20 -53 -11 -22 -19 -46 -20 -52 0 -7 -4 -13 -9 -13
-5 0 -12 -16 -15 -35 -4 -19 -11 -35 -16 -35 -6 0 -10 -9 -10 -21 0 -18 -27
-88 -49 -129 -5 -9 -12 -35 -16 -58 -4 -23 -11 -42 -16 -42 -6 0 -9 -6 -8 -12
3 -23 -13 -78 -23 -78 -5 0 -6 -9 -3 -20 4 -12 2 -26 -3 -33 -5 -7 -13 -28
-16 -47 -4 -19 -11 -44 -15 -55 -8 -20 -19 -61 -47 -180 -20 -83 -41 -205 -36
-205 2 0 0 -6 -6 -12 -6 -7 -13 -55 -17 -105 -4 -51 -11 -93 -16 -93 -4 0 -7
-15 -7 -32 1 -18 -5 -82 -12 -143 -26 -213 -17 -830 16 -1065 2 -19 10 -78 16
-130 6 -52 14 -97 17 -100 3 -3 6 -9 6 -15 2 -37 18 -133 25 -150 8 -20 38
-136 47 -185 2 -14 8 -34 13 -45 12 -30 32 -107 34 -132 0 -13 4 -23 9 -23 4
0 7 -11 7 -24 0 -14 5 -28 11 -31 6 -4 8 -13 5 -21 -3 -8 -1 -14 3 -14 5 0 12
-18 16 -41 4 -22 13 -53 21 -67 8 -15 14 -37 14 -49 0 -13 4 -23 10 -23 5 0
12 -16 16 -35 3 -19 10 -35 15 -35 4 0 11 -16 15 -35 3 -19 9 -35 13 -35 4 0
18 -31 31 -69 13 -39 28 -67 34 -64 5 4 7 -1 3 -10 -3 -10 -3 -17 1 -17 8 0
38 -70 48 -113 3 -15 10 -27 14 -27 5 0 11 -13 15 -30 4 -17 10 -30 14 -30 3
0 18 -21 31 -47 14 -27 28 -50 32 -53 3 -3 9 -17 13 -32 4 -15 13 -29 21 -32
8 -3 14 -12 14 -21 0 -8 5 -15 11 -15 6 0 9 -7 5 -15 -3 -8 -1 -15 4 -15 6 0
10 -7 10 -15 0 -9 6 -18 14 -21 8 -3 17 -16 20 -30 4 -13 10 -24 15 -24 5 0
12 -13 16 -29 3 -16 13 -32 21 -35 8 -3 14 -12 14 -20 0 -7 7 -16 15 -20 8 -3
15 -12 15 -21 0 -8 4 -15 10 -15 5 0 12 -11 16 -25 3 -14 10 -25 16 -25 5 0
14 -13 19 -30 6 -16 20 -32 30 -35 11 -4 18 -12 16 -18 -2 -6 7 -21 20 -33 13
-12 23 -27 23 -33 0 -6 7 -14 15 -17 8 -3 17 -15 21 -27 4 -12 20 -32 35 -46
16 -14 29 -30 29 -35 0 -5 18 -27 40 -49 23 -22 39 -41 36 -44 -2 -3 22 -31
55 -62 32 -32 59 -61 59 -66 0 -4 52 -59 115 -122 63 -64 115 -119 115 -123 0
-5 10 -12 23 -16 12 -3 47 -33 79 -64 31 -32 65 -61 76 -64 10 -4 25 -17 32
-31 7 -14 22 -28 33 -31 11 -3 32 -19 47 -34 15 -15 37 -31 49 -35 11 -3 21
-11 21 -16 0 -5 8 -13 18 -16 9 -4 27 -17 39 -30 12 -13 26 -23 30 -23 5 0 16
-9 26 -20 9 -11 23 -20 31 -20 8 0 16 -7 20 -15 3 -8 12 -15 21 -15 8 0 15 -4
15 -9 0 -5 14 -14 30 -20 17 -5 30 -15 30 -20 0 -6 7 -11 15 -11 9 0 18 -7 21
-15 4 -8 14 -15 24 -15 10 0 20 -6 23 -14 3 -8 19 -17 35 -21 17 -3 33 -13 36
-21 3 -8 12 -14 21 -14 8 0 15 -4 15 -9 0 -5 11 -12 25 -15 14 -4 25 -11 25
-17 0 -6 5 -7 10 -4 6 3 10 1 10 -4 0 -6 7 -11 15 -11 8 0 15 -5 15 -11 0 -6
7 -9 15 -5 8 3 15 2 15 -3 0 -5 11 -12 25 -15 14 -4 25 -10 25 -15 0 -5 14
-12 30 -16 17 -4 30 -10 30 -15 0 -4 11 -11 25 -14 14 -4 25 -10 25 -15 0 -5
14 -12 30 -16 17 -4 30 -10 30 -15 0 -5 14 -11 30 -15 17 -4 30 -10 30 -15 0
-4 18 -10 40 -14 22 -3 40 -11 40 -17 0 -5 5 -7 10 -4 6 3 10 2 10 -3 0 -5 18
-12 40 -16 22 -3 40 -11 40 -16 0 -6 6 -10 13 -10 6 -1 30 -9 52 -20 22 -11
48 -19 58 -20 9 0 17 -4 17 -10 0 -5 10 -10 23 -10 12 0 35 -7 51 -15 15 -8
36 -15 45 -15 9 0 29 -7 44 -15 15 -8 43 -17 63 -21 19 -3 37 -10 39 -15 3 -4
26 -11 50 -15 25 -3 45 -9 45 -13 0 -3 10 -7 23 -8 34 -2 120 -23 139 -33 10
-6 29 -10 43 -10 14 0 25 -4 25 -10 0 -7 362 -10 1065 -10 596 0 1065 4 1065
9 0 4 17 11 38 14 20 4 62 14 92 23 30 9 65 17 78 18 12 0 22 4 22 7 0 4 17 9
39 13 21 3 51 13 67 21 16 8 41 15 57 15 15 0 27 5 27 10 0 6 10 10 23 10 12
0 33 6 47 13 14 7 57 23 95 36 39 13 75 27 80 31 14 11 88 35 99 32 4 -2 16 7
26 19 11 11 24 18 29 14 6 -3 11 -1 11 4 0 6 18 14 40 17 22 4 40 10 40 14 0
5 14 11 30 15 17 4 30 10 30 15 0 4 11 11 25 14 14 4 25 10 25 15 0 5 14 12
30 16 17 4 30 10 30 15 0 5 14 11 30 15 17 4 30 10 30 14 0 4 16 13 35 21 19
8 35 17 35 22 0 4 7 8 15 8 8 0 15 5 15 11 0 6 7 9 15 5 8 -3 15 -1 15 4 0 5
11 12 25 16 14 3 25 10 25 15 0 5 7 9 15 9 9 0 18 6 21 14 3 8 19 18 36 21 16
4 32 13 35 21 3 8 11 14 19 14 8 0 14 4 14 10 0 5 11 12 25 16 14 3 25 10 25
16 0 5 14 14 30 19 17 6 30 15 30 20 0 5 7 9 15 9 9 0 18 7 21 15 4 8 12 15
19 15 6 0 20 9 30 20 10 11 24 20 32 20 7 0 13 5 13 10 0 6 8 14 18 17 9 4 30
19 45 35 16 15 34 28 41 28 7 0 19 11 26 25 9 18 19 23 32 19 10 -3 18 -2 18
3 0 12 57 73 69 73 5 0 32 22 58 49 26 26 58 51 71 55 12 4 22 11 22 16 0 4
65 73 145 153 80 81 145 149 145 154 0 4 23 28 50 54 28 26 50 53 50 60 0 8
16 27 35 42 19 15 35 33 35 39 0 6 11 21 24 33 13 12 27 31 30 42 3 11 18 26
31 33 14 7 25 22 25 32 0 10 7 21 15 24 8 4 12 10 9 15 -3 6 6 19 20 30 14 11
26 27 26 35 0 8 6 17 14 20 8 3 17 16 20 30 4 13 11 24 16 24 6 0 10 7 10 15
0 9 7 18 15 21 8 4 15 13 15 20 0 8 6 17 14 20 8 3 17 16 20 30 4 13 10 24 15
24 5 0 12 13 16 29 3 16 12 32 20 34 7 3 16 19 20 35 3 17 13 33 21 36 8 3 14
12 14 21 0 8 4 15 9 15 5 0 12 13 16 30 4 16 11 30 16 30 5 0 11 11 15 25 3
14 10 25 14 25 4 0 11 11 14 25 4 14 10 25 15 25 5 0 12 13 16 30 4 16 10 30
15 30 5 0 11 13 15 30 4 16 11 30 17 30 6 0 8 7 4 15 -3 8 -1 15 4 15 6 0 10
6 10 13 1 6 9 30 20 52 11 22 19 46 20 53 0 6 4 12 9 12 5 0 11 18 15 40 3 22
11 40 16 40 6 0 10 6 10 13 0 6 6 24 14 39 8 15 17 40 21 57 4 17 11 31 16 31
5 0 9 9 9 21 0 12 6 35 14 52 8 18 20 56 26 85 7 28 16 55 21 58 5 3 9 15 9
27 0 12 7 35 15 51 8 15 15 38 15 50 0 11 6 33 14 47 7 14 17 48 21 75 4 27
12 55 18 63 17 20 17 2232 0 2252 -6 8 -16 37 -22 64 -13 66 -32 135 -42 160
-16 36 -59 175 -59 189 0 8 -7 27 -15 42 -8 16 -15 37 -15 47 0 9 -4 17 -10
17 -5 0 -13 18 -16 40 -4 22 -10 40 -15 40 -4 0 -11 16 -15 35 -3 19 -10 35
-15 35 -4 0 -11 16 -15 35 -3 19 -10 35 -14 35 -5 0 -11 14 -15 30 -4 17 -11
30 -16 30 -5 0 -12 18 -15 40 -4 22 -11 40 -16 40 -5 0 -6 5 -3 10 3 6 2 10
-4 10 -5 0 -12 14 -16 30 -4 17 -10 30 -15 30 -5 0 -11 14 -15 30 -4 17 -10
30 -15 30 -5 0 -11 13 -15 29 -3 16 -13 32 -21 35 -8 3 -14 12 -14 21 0 8 -4
15 -9 15 -5 0 -12 14 -16 30 -4 17 -10 30 -15 30 -4 0 -11 11 -14 25 -4 14
-10 25 -15 25 -5 0 -12 14 -16 31 -4 17 -13 33 -20 36 -8 2 -17 17 -20 33 -3
16 -13 31 -21 34 -8 3 -14 12 -14 21 0 8 -4 15 -10 15 -5 0 -12 11 -16 24 -3
14 -12 27 -20 30 -8 3 -14 12 -14 20 0 7 -7 16 -15 20 -8 3 -15 14 -15 25 0
10 -7 21 -15 25 -8 3 -15 11 -15 17 0 6 -11 22 -24 34 -14 13 -22 25 -19 28 3
3 -7 17 -21 30 -14 13 -26 29 -26 35 0 6 -9 16 -20 22 -11 6 -20 19 -20 29 0
10 -11 24 -25 31 -13 7 -27 22 -31 33 -3 10 -23 35 -43 55 -21 21 -37 42 -35
47 1 6 -22 30 -51 55 -29 25 -56 53 -60 63 -9 25 -261 274 -285 282 -11 3 -20
10 -20 14 0 11 -88 99 -94 93 -3 -3 -24 14 -46 37 -22 22 -44 41 -49 41 -5 0
-20 13 -33 29 -14 16 -34 32 -46 35 -12 4 -22 12 -22 17 0 6 -13 15 -29 20
-16 6 -32 17 -35 25 -3 8 -10 14 -16 14 -6 0 -21 11 -34 25 -13 14 -29 25 -35
25 -6 0 -14 6 -17 14 -3 8 -16 17 -30 20 -13 4 -24 11 -24 16 0 6 -7 10 -15
10 -9 0 -18 6 -21 14 -3 8 -16 17 -30 20 -13 4 -24 11 -24 17 0 6 -4 8 -9 5
-5 -3 -14 1 -21 9 -7 8 -19 15 -26 15 -8 0 -14 5 -14 10 0 6 -7 10 -15 10 -9
0 -18 6 -21 14 -3 8 -19 18 -35 21 -16 4 -29 10 -29 15 0 5 -10 12 -22 16 -12
3 -28 13 -36 20 -7 8 -20 14 -28 14 -8 0 -14 4 -14 9 0 5 -11 12 -25 15 -14 4
-25 10 -25 15 0 5 -13 12 -30 16 -16 4 -30 11 -30 16 0 5 -3 8 -7 8 -15 -3
-73 23 -73 32 0 5 -7 9 -15 9 -8 0 -15 4 -15 10 0 5 -7 7 -15 4 -8 -4 -15 -2
-15 4 0 5 -18 12 -40 16 -22 3 -40 10 -40 15 0 5 -13 12 -30 16 -16 4 -30 10
-30 15 0 4 -16 11 -35 14 -19 4 -35 11 -35 15 0 5 -16 12 -35 15 -19 4 -35 11
-35 15 0 5 -18 11 -40 15 -22 3 -40 10 -40 14 0 5 -6 9 -12 9 -13 0 -247 76
-283 92 -23 9 -88 27 -155 42 -25 5 -52 14 -60 18 -18 10 -118 26 -137 22 -7
-1 -13 3 -13 8 0 6 -10 10 -22 10 -13 -1 -63 6 -113 16 -161 29 -298 47 -397
52 -54 3 -98 9 -98 14 0 5 -149 9 -355 9 -205 0 -355 -4 -355 -9z m585 -181
c539 -30 1046 -156 1545 -385 218 -100 484 -256 571 -335 56 -50 38 -50 -55
-1 -569 307 -1085 483 -1656 566 -150 22 -473 45 -627 45 -303 0 -684 -41
-968 -104 -154 -33 -265 -64 -455 -126 -470 -152 -967 -423 -1370 -746 -222
-177 -410 -359 -634 -612 -60 -67 -111 -121 -113 -118 -16 15 282 410 528 701
110 130 170 191 254 258 195 157 458 323 715 452 234 118 568 245 644 245 17
0 96 14 176 31 596 125 941 156 1445 129z m200 -858 c28 -6 84 -16 125 -22 41
-7 98 -15 125 -19 28 -5 73 -14 100 -21 135 -34 162 -42 190 -51 17 -6 52 -15
80 -21 27 -5 52 -13 55 -17 3 -4 31 -13 62 -20 31 -7 58 -15 60 -19 2 -4 28
-15 58 -26 30 -10 74 -27 97 -37 23 -10 47 -19 52 -19 6 0 11 -4 11 -10 0 -5
6 -10 13 -10 6 -1 30 -9 52 -20 22 -11 46 -19 53 -20 6 0 12 -4 12 -9 0 -5 14
-12 30 -16 17 -4 30 -10 30 -14 0 -4 16 -13 35 -20 19 -7 35 -16 35 -21 0 -5
14 -11 30 -15 17 -4 30 -11 30 -16 0 -5 6 -9 14 -9 7 0 19 -6 25 -14 7 -8 25
-18 41 -21 16 -3 31 -13 34 -21 3 -8 12 -14 21 -14 8 0 15 -4 15 -10 0 -5 7
-10 15 -10 9 0 18 -6 21 -14 3 -8 16 -17 30 -20 13 -4 24 -11 24 -16 0 -6 7
-10 15 -10 9 0 18 -7 22 -16 3 -8 11 -13 18 -11 6 3 20 -6 30 -19 10 -13 24
-24 32 -24 7 0 16 -7 19 -15 3 -8 15 -17 26 -21 12 -3 31 -17 43 -30 12 -13
27 -24 32 -24 5 0 23 -16 39 -35 16 -19 34 -35 40 -35 6 0 38 -27 70 -60 33
-33 63 -60 67 -60 10 0 187 -176 187 -185 0 -4 27 -34 60 -67 33 -33 60 -64
60 -69 0 -5 16 -24 35 -42 19 -17 35 -37 35 -44 0 -6 11 -20 24 -30 13 -10 26
-29 30 -41 4 -12 12 -22 17 -22 5 0 13 -8 16 -17 4 -10 16 -27 28 -38 12 -11
24 -28 28 -38 3 -9 11 -17 17 -17 5 0 10 -9 10 -20 0 -11 6 -23 14 -26 8 -3
13 -11 10 -19 -3 -7 2 -15 10 -18 9 -4 16 -13 16 -22 0 -8 4 -15 9 -15 5 0 12
-11 15 -25 4 -14 10 -25 15 -25 5 0 12 -13 16 -29 3 -16 13 -32 21 -35 8 -3
14 -12 14 -21 0 -8 4 -15 9 -15 5 0 12 -13 16 -29 3 -16 13 -32 21 -35 8 -3
14 -12 14 -21 0 -8 4 -15 9 -15 5 0 12 -13 16 -30 4 -16 11 -30 17 -30 6 0 8
-7 4 -15 -3 -8 -1 -15 4 -15 6 0 10 -6 10 -12 1 -7 9 -31 20 -53 11 -22 19
-46 20 -52 0 -7 5 -13 10 -13 6 0 10 -6 10 -12 0 -7 6 -24 13 -38 7 -14 24
-54 37 -90 13 -36 30 -76 37 -90 7 -14 13 -34 13 -46 0 -11 4 -24 9 -30 13
-15 42 -114 36 -124 -4 -6 -1 -10 4 -10 6 0 11 -11 11 -24 0 -14 5 -28 10 -31
6 -4 8 -15 5 -26 -4 -10 -2 -19 3 -19 5 0 13 -26 17 -57 4 -32 11 -65 15 -73
10 -19 41 -183 50 -270 4 -36 13 -105 20 -153 8 -60 10 -190 8 -405 -4 -301
-10 -373 -43 -552 -7 -41 -17 -95 -20 -120 -4 -25 -11 -49 -15 -55 -5 -5 -11
-36 -15 -67 -4 -32 -12 -58 -17 -58 -5 0 -8 -8 -7 -17 3 -28 -12 -83 -23 -83
-5 0 -7 -9 -3 -19 3 -11 1 -28 -4 -38 -6 -10 -21 -52 -34 -93 -23 -71 -60
-165 -93 -237 -8 -17 -14 -36 -14 -42 0 -6 -4 -11 -10 -11 -5 0 -10 -11 -10
-24 0 -13 -6 -29 -14 -35 -8 -7 -18 -26 -21 -42 -4 -16 -11 -29 -17 -29 -6 0
-8 -7 -4 -15 3 -8 2 -15 -3 -15 -5 0 -12 -12 -16 -27 -3 -15 -10 -30 -13 -33
-11 -8 -31 -42 -45 -72 -6 -16 -15 -28 -18 -28 -4 0 -10 -14 -14 -30 -4 -17
-11 -30 -16 -30 -5 0 -11 -11 -15 -25 -3 -14 -10 -25 -15 -25 -5 0 -9 -7 -9
-15 0 -9 -7 -18 -15 -21 -8 -4 -15 -13 -15 -20 0 -8 -7 -17 -16 -21 -8 -3 -13
-12 -10 -19 3 -8 1 -14 -4 -14 -5 0 -12 -11 -16 -25 -3 -14 -10 -25 -15 -25
-5 0 -13 -8 -16 -17 -4 -10 -16 -27 -28 -38 -12 -11 -24 -28 -28 -38 -3 -9
-11 -17 -16 -17 -5 0 -13 -10 -16 -22 -4 -11 -18 -31 -31 -43 -13 -12 -24 -26
-24 -31 0 -5 -12 -20 -25 -33 -14 -13 -25 -28 -25 -33 0 -6 -25 -34 -55 -63
-30 -29 -55 -57 -55 -60 0 -4 -21 -29 -47 -55 -27 -26 -72 -73 -102 -104 -29
-31 -57 -56 -61 -56 -5 0 -12 -9 -15 -20 -4 -11 -11 -18 -16 -14 -6 3 -34 -19
-64 -50 -29 -31 -58 -56 -63 -56 -6 0 -22 -14 -37 -31 -14 -17 -29 -29 -32
-25 -3 3 -16 -5 -28 -18 -12 -13 -31 -27 -43 -30 -11 -4 -23 -13 -26 -21 -3
-8 -11 -15 -17 -15 -6 0 -22 -11 -35 -25 -13 -14 -28 -25 -34 -25 -6 0 -13 -6
-16 -14 -3 -8 -16 -17 -30 -20 -13 -4 -24 -11 -24 -16 0 -6 -7 -10 -15 -10 -9
0 -18 -7 -21 -15 -4 -8 -13 -15 -20 -15 -8 0 -17 -7 -21 -16 -3 -8 -12 -13
-20 -10 -13 5 -21 1 -56 -30 -7 -6 -24 -15 -37 -19 -14 -4 -27 -10 -30 -14 -8
-10 -63 -42 -82 -48 -10 -3 -18 -9 -18 -13 0 -5 -13 -11 -30 -15 -16 -4 -30
-10 -30 -15 0 -5 -13 -11 -30 -15 -16 -4 -30 -11 -30 -16 0 -5 -6 -9 -12 -9
-7 0 -26 -7 -42 -15 -15 -8 -32 -12 -37 -9 -5 3 -9 1 -9 -4 0 -6 -12 -13 -27
-17 -15 -3 -30 -10 -33 -13 -3 -4 -30 -15 -60 -26 -30 -10 -68 -24 -85 -32
-122 -55 -514 -162 -567 -155 -10 1 -18 -2 -18 -7 0 -6 -43 -13 -95 -17 -52
-4 -95 -11 -95 -16 0 -4 -12 -8 -27 -7 -16 0 -121 -5 -235 -11 -160 -9 -255
-10 -410 0 -112 6 -215 11 -230 11 -16 -1 -28 3 -28 7 0 5 -43 12 -95 16 -52
4 -95 11 -95 16 0 5 -10 9 -22 8 -40 0 -118 13 -118 21 0 4 -6 7 -12 7 -19 -2
-87 13 -138 29 -134 41 -269 86 -295 98 -16 8 -55 22 -85 32 -30 11 -57 22
-60 26 -3 3 -18 10 -33 13 -15 4 -27 11 -27 17 0 5 -4 7 -9 4 -5 -3 -22 1 -37
9 -16 8 -35 15 -41 15 -7 0 -13 4 -13 9 0 5 -14 12 -30 16 -17 4 -30 10 -30
15 0 5 -14 11 -30 15 -17 4 -30 11 -30 16 0 5 -7 9 -15 9 -9 0 -18 6 -21 14
-3 8 -19 18 -35 21 -16 4 -29 10 -29 15 0 5 -13 11 -30 15 -16 4 -30 11 -30
16 0 5 -11 11 -24 15 -14 3 -27 12 -30 19 -2 7 -18 16 -34 20 -17 3 -33 13
-36 21 -3 8 -12 14 -21 14 -8 0 -15 4 -15 10 0 5 -11 12 -24 16 -14 3 -27 12
-30 20 -3 8 -11 14 -17 14 -6 0 -22 11 -35 25 -13 14 -28 25 -34 25 -6 0 -13
7 -16 15 -3 8 -15 17 -26 21 -11 3 -29 15 -39 25 -10 10 -25 19 -31 19 -7 1
-26 19 -43 40 -16 21 -36 39 -43 40 -7 0 -39 27 -71 60 -32 33 -63 60 -68 60
-14 0 -183 171 -183 185 0 4 -27 33 -60 64 -33 32 -60 61 -60 65 0 4 -6 13
-12 21 -27 28 -48 56 -48 63 0 4 -13 19 -30 32 -16 14 -29 30 -30 36 0 6 -9
19 -20 29 -11 10 -20 24 -20 32 0 7 -5 13 -10 13 -6 0 -14 8 -17 17 -4 10 -16
27 -29 39 -12 11 -25 31 -29 43 -3 12 -11 18 -17 15 -6 -4 -8 1 -4 14 4 13 1
22 -9 26 -8 3 -15 12 -15 21 0 8 -4 15 -10 15 -5 0 -10 7 -10 15 0 9 -6 18
-14 21 -8 3 -18 19 -21 35 -4 16 -11 29 -16 29 -5 0 -11 11 -15 25 -3 14 -10
25 -15 25 -5 0 -9 6 -9 14 0 8 -6 21 -13 28 -16 17 -67 120 -67 136 0 6 -4 12
-10 12 -5 0 -10 6 -10 14 0 8 -6 21 -13 28 -8 7 -17 30 -21 51 -4 20 -11 37
-16 37 -5 0 -12 16 -16 35 -3 19 -10 35 -15 35 -5 0 -12 18 -15 40 -4 22 -10
37 -15 35 -4 -3 -11 11 -15 32 -4 21 -10 40 -14 43 -13 10 -65 185 -61 208 1
6 -3 12 -8 12 -6 0 -13 23 -17 50 -4 28 -10 50 -14 50 -5 0 -11 27 -15 60 -4
33 -10 60 -14 60 -4 0 -7 8 -8 18 0 9 -6 44 -11 77 -16 87 -29 168 -44 270
-18 124 -18 694 0 835 13 97 18 128 43 265 5 28 10 62 11 78 0 15 4 27 9 27 4
0 10 27 14 60 4 33 11 60 15 60 4 0 13 28 19 62 6 34 15 66 21 72 5 5 10 21
10 36 1 14 9 43 20 65 11 22 19 50 20 63 0 12 4 22 9 22 5 0 12 16 15 35 4 19
11 35 16 35 6 0 10 11 10 24 0 14 6 31 13 38 8 7 17 30 21 51 4 20 11 37 16
37 4 0 11 14 15 30 4 17 11 30 16 30 5 0 9 7 9 17 0 22 49 123 59 123 5 0 12
14 16 30 4 17 10 30 15 30 5 0 11 14 15 30 4 17 11 30 16 30 5 0 9 7 9 15 0 9
6 18 14 21 8 3 18 19 21 35 4 16 11 29 16 29 5 0 11 11 15 24 3 14 12 27 20
30 8 3 14 12 14 21 0 8 4 15 9 15 5 0 14 14 20 30 5 17 15 30 20 30 6 0 11 7
11 15 0 9 7 18 15 21 8 4 15 12 15 20 0 8 9 22 20 31 11 10 20 23 20 30 0 7 4
13 9 13 5 0 13 10 17 22 3 12 19 32 35 46 16 13 29 29 29 34 0 6 18 28 39 49
22 20 37 39 35 42 -3 3 22 32 55 65 34 32 61 62 61 66 0 10 157 166 167 166 4
0 34 26 65 59 32 32 60 56 62 53 3 -3 23 14 45 37 21 22 43 41 48 41 5 0 20
13 34 29 14 15 35 31 47 35 12 4 22 12 22 17 0 5 11 14 25 19 14 5 25 14 25
20 0 5 7 10 15 10 8 0 23 9 32 20 10 11 23 20 30 20 7 0 13 4 13 10 0 5 11 12
25 16 14 3 25 10 25 15 0 5 7 9 15 9 9 0 18 7 21 15 4 8 13 15 20 15 8 0 17 6
20 14 3 8 19 18 35 21 16 4 29 11 29 16 0 5 11 11 25 15 14 3 25 10 25 14 0 5
13 11 30 15 17 4 30 11 30 15 0 5 7 7 15 4 8 -4 15 -2 15 4 0 11 134 82 156
82 8 0 14 4 14 9 0 5 14 12 30 16 17 4 30 11 30 15 0 5 16 12 35 16 19 3 35 9
35 13 0 4 33 18 73 31 39 14 73 28 75 32 2 4 30 13 63 20 32 6 59 15 59 19 0
3 19 9 43 12 24 3 56 13 72 21 17 9 38 16 48 16 10 0 39 6 65 14 26 8 83 21
127 31 44 9 100 21 125 26 25 6 83 15 130 21 47 6 110 14 140 18 82 12 726 5
785 -8z m2704 -5864 c-93 -175 -413 -537 -654 -739 -277 -232 -587 -429 -900
-572 -125 -57 -363 -149 -450 -174 -237 -69 -430 -111 -640 -140 -188 -26
-782 -26 -970 0 -413 57 -781 167 -1130 337 -214 104 -465 259 -465 289 0 9 4
10 13 4 6 -5 28 -16 47 -23 19 -8 89 -40 155 -73 441 -217 843 -342 1305 -408
193 -27 682 -38 850 -20 334 37 712 125 820 189 25 15 110 54 190 86 379 154
664 314 1010 568 63 46 123 87 133 91 24 9 124 77 222 151 94 71 269 239 381
366 78 89 106 112 83 68z"/>
<path d="M3950 7225 c-19 -7 -45 -14 -57 -14 -13 -1 -23 -5 -23 -11 0 -5 -6
-10 -13 -10 -8 0 -24 -9 -37 -20 -13 -11 -27 -20 -31 -20 -13 0 -59 -46 -59
-59 0 -6 -4 -11 -10 -11 -5 0 -12 -11 -16 -25 -3 -14 -10 -25 -15 -25 -5 0 -6
-7 -3 -15 4 -8 2 -15 -3 -15 -17 0 -45 -142 -40 -200 4 -53 20 -128 34 -160 3
-8 5 -18 5 -22 -1 -5 2 -8 8 -8 5 0 10 -7 10 -15 0 -8 17 -29 37 -47 20 -18
43 -41 52 -50 8 -10 21 -18 27 -18 7 0 14 -6 17 -13 7 -19 101 -47 167 -50 76
-5 264 12 268 24 2 5 7 7 11 4 4 -2 57 5 117 16 60 11 137 24 171 28 34 5 66
12 72 15 5 4 40 10 78 15 37 5 76 12 86 16 15 6 17 1 17 -36 0 -53 -7 -65 -42
-74 -15 -4 -29 -13 -32 -21 -3 -8 -11 -14 -18 -14 -7 -1 -24 -14 -38 -30 -13
-17 -30 -30 -37 -30 -7 0 -13 -6 -13 -13 0 -7 -13 -23 -30 -37 -16 -14 -30
-30 -30 -37 0 -7 -5 -13 -11 -13 -6 0 -9 -7 -5 -15 3 -8 1 -15 -4 -15 -4 0
-11 -13 -15 -30 -4 -16 -10 -30 -14 -30 -11 0 -34 -121 -38 -210 -3 -47 1
-120 7 -164 6 -44 15 -136 20 -205 5 -69 13 -175 19 -236 31 -308 54 -591 52
-632 0 -18 3 -33 8 -33 4 0 11 -17 14 -39 3 -26 16 -49 41 -75 32 -32 47 -38
112 -48 51 -8 74 -16 74 -25 0 -8 -4 -11 -10 -8 -5 3 -20 -5 -32 -18 -13 -13
-31 -26 -40 -30 -10 -3 -18 -13 -18 -20 0 -8 -6 -20 -14 -26 -8 -7 -18 -26
-21 -42 -4 -17 -10 -28 -13 -24 -13 13 -34 -97 -42 -221 -4 -72 -12 -140 -18
-150 -5 -11 -13 -40 -17 -66 -4 -27 -11 -48 -15 -48 -5 0 -11 -14 -15 -30 -4
-17 -11 -30 -15 -30 -5 0 -7 -7 -4 -15 4 -8 1 -15 -5 -15 -6 0 -11 -7 -11 -15
0 -9 -7 -18 -15 -21 -8 -4 -15 -12 -15 -18 0 -7 -16 -27 -35 -45 -19 -17 -35
-36 -35 -42 0 -12 -49 -59 -62 -59 -5 0 -19 -11 -32 -25 -13 -14 -29 -25 -35
-25 -6 0 -14 -7 -17 -15 -4 -8 -13 -15 -20 -15 -8 0 -17 -7 -20 -15 -4 -8 -11
-15 -18 -15 -6 0 -29 -9 -51 -20 -22 -11 -46 -20 -55 -20 -9 0 -20 -4 -26 -10
-5 -5 -43 -16 -84 -22 -88 -15 -318 -7 -329 11 -4 7 -15 9 -23 6 -9 -4 -19 -2
-23 4 -3 6 -15 11 -26 11 -10 0 -19 4 -19 10 0 5 -7 7 -15 4 -8 -4 -15 -2 -15
4 0 6 -13 13 -30 17 -17 4 -30 10 -30 15 0 4 -10 10 -22 14 -13 3 -35 17 -50
31 -15 14 -30 25 -34 25 -10 0 -144 141 -144 151 0 5 -6 12 -14 15 -8 3 -17
16 -20 30 -4 13 -10 24 -15 24 -5 0 -12 13 -16 30 -4 16 -11 30 -16 30 -5 0
-9 6 -9 13 0 6 -7 26 -16 42 -17 33 -29 85 -44 185 -5 37 -9 464 -10 988 0
917 0 924 -22 995 -11 40 -25 74 -30 75 -4 2 -8 9 -8 16 0 15 -74 86 -89 86
-6 0 -11 5 -11 11 0 10 -58 35 -74 31 -4 -2 -15 3 -23 10 -22 18 -271 17 -283
-1 -4 -8 -16 -11 -29 -6 -12 3 -21 2 -21 -4 0 -5 -10 -13 -22 -17 -13 -4 -32
-17 -44 -29 -11 -13 -31 -26 -42 -30 -12 -3 -22 -12 -22 -19 0 -8 -6 -19 -14
-26 -8 -6 -13 -17 -10 -24 3 -8 -2 -16 -10 -19 -9 -4 -16 -16 -16 -27 0 -11
-4 -20 -9 -20 -25 0 -31 -205 -30 -1091 0 -951 3 -1032 44 -1209 10 -41 17
-83 17 -92 0 -10 3 -18 9 -18 5 0 9 -9 9 -19 0 -11 5 -23 10 -26 6 -4 8 -15 5
-26 -4 -10 -2 -19 3 -19 5 0 13 -16 16 -35 4 -19 11 -35 16 -35 6 0 10 -5 10
-11 0 -14 42 -102 52 -109 3 -3 9 -17 13 -32 4 -15 13 -29 21 -32 8 -3 14 -12
14 -20 0 -7 7 -16 15 -20 8 -3 15 -12 15 -20 0 -8 12 -27 27 -41 15 -14 24
-25 19 -25 -5 0 10 -18 33 -40 22 -22 41 -44 41 -49 0 -11 88 -101 100 -101 5
0 24 -16 43 -35 19 -19 38 -35 42 -35 4 0 18 -11 30 -24 13 -14 26 -22 30 -18
3 4 11 -1 16 -11 6 -9 18 -17 28 -17 11 0 21 -7 25 -15 3 -8 12 -15 21 -15 8
0 15 -4 15 -9 0 -5 14 -12 30 -16 17 -4 30 -10 30 -13 0 -4 25 -18 55 -32 30
-14 55 -28 55 -32 0 -4 18 -11 40 -14 22 -4 40 -11 40 -16 0 -5 4 -7 9 -3 5 3
12 1 15 -4 4 -5 25 -12 49 -16 23 -4 47 -11 52 -15 6 -4 42 -14 80 -23 317
-72 645 -59 919 35 34 11 67 21 74 21 6 0 12 4 12 9 0 4 18 11 40 14 22 4 40
10 40 14 0 5 14 11 30 15 17 4 30 11 30 16 0 5 7 9 15 9 9 0 18 6 21 14 3 8
19 18 35 21 16 4 29 11 29 16 0 5 10 14 23 19 32 14 58 32 81 56 12 12 26 20
31 18 6 -2 24 15 40 36 17 22 35 39 42 40 6 0 32 20 56 45 25 25 48 45 51 45
6 0 56 -50 114 -114 18 -20 39 -36 47 -36 8 0 15 -5 15 -10 0 -6 12 -16 28
-23 15 -6 36 -22 48 -34 11 -12 32 -25 46 -28 15 -4 29 -13 32 -21 3 -8 12
-14 21 -14 8 0 15 -4 15 -9 0 -5 14 -12 30 -16 17 -4 30 -10 30 -15 0 -5 14
-11 30 -15 17 -4 30 -11 30 -16 0 -5 6 -9 14 -9 8 0 21 -7 30 -15 8 -9 19 -14
23 -13 7 2 83 -19 193 -54 134 -43 489 -61 640 -33 135 25 234 47 245 55 6 4
29 11 52 15 24 4 45 11 49 16 3 5 10 7 15 4 5 -4 9 -2 9 3 0 5 18 12 40 16 22
3 40 10 40 14 0 4 25 19 55 32 30 13 55 27 55 31 0 4 14 10 30 14 17 4 30 11
30 16 0 5 7 9 15 9 9 0 18 7 21 15 4 8 12 15 19 15 8 0 21 7 30 16 9 9 18 14
22 11 3 -3 15 5 28 19 12 13 26 24 30 24 5 0 27 20 51 45 23 25 45 45 50 45 5
0 20 12 33 25 13 14 27 25 31 25 5 0 12 9 15 21 4 11 24 38 46 59 21 20 36 39
34 42 -3 2 6 15 20 28 14 13 25 30 25 37 0 8 7 16 15 19 8 4 15 13 15 20 0 8
6 17 14 20 8 3 17 17 21 32 4 15 10 29 13 32 10 7 52 95 52 109 0 6 4 11 10
11 5 0 12 16 16 35 3 19 11 35 16 35 6 0 7 7 4 15 -3 9 -2 23 3 33 29 55 63
200 81 342 15 125 14 1940 -2 2043 -6 42 -15 77 -19 77 -4 0 -10 14 -14 30 -4
17 -11 30 -16 30 -6 0 -7 4 -4 10 7 11 -72 90 -91 90 -8 0 -14 4 -14 9 0 5
-13 12 -30 16 -16 4 -30 10 -30 14 0 4 -6 8 -12 9 -7 1 -44 6 -83 12 -75 11
-212 4 -232 -12 -7 -5 -17 -7 -23 -3 -5 3 -10 2 -10 -4 0 -5 -13 -12 -29 -16
-16 -3 -32 -13 -35 -21 -3 -8 -10 -14 -16 -14 -15 0 -64 -50 -73 -72 -3 -10
-11 -18 -16 -18 -6 0 -13 -16 -17 -35 -3 -19 -10 -35 -15 -35 -11 0 -10 66
-17 -1045 -7 -944 -8 -993 -27 -1055 -10 -36 -23 -67 -27 -68 -4 -2 -8 -11 -8
-20 0 -21 -40 -102 -50 -102 -4 0 -11 -8 -14 -17 -3 -10 -12 -27 -19 -38 -19
-31 -175 -185 -187 -185 -6 0 -13 -6 -16 -14 -3 -8 -16 -17 -30 -20 -13 -4
-24 -11 -24 -16 0 -6 -6 -10 -12 -10 -7 0 -26 -7 -42 -15 -15 -8 -32 -12 -37
-9 -5 3 -9 2 -9 -3 0 -13 -58 -35 -71 -27 -6 3 -14 2 -18 -3 -3 -5 -28 -13
-56 -19 -63 -12 -308 0 -313 15 -2 6 -8 9 -13 5 -12 -7 -69 18 -69 30 0 4 -7
6 -15 2 -8 -3 -15 -1 -15 4 0 6 -11 10 -25 10 -14 0 -28 6 -31 14 -3 8 -18 17
-33 21 -15 3 -35 17 -45 30 -10 14 -23 25 -29 25 -5 0 -36 27 -68 59 -31 33
-60 57 -63 53 -3 -3 -6 4 -6 16 0 12 -9 26 -20 32 -11 6 -20 17 -20 25 0 8 -4
15 -10 15 -5 0 -12 11 -16 25 -3 14 -10 25 -16 25 -5 0 -6 5 -2 11 3 6 3 14
-2 18 -16 11 -35 52 -29 61 4 6 2 10 -3 10 -9 0 -24 47 -26 80 -1 8 -4 20 -8
25 -3 6 -9 64 -13 130 -6 112 -30 235 -46 235 -4 0 -10 11 -13 24 -7 27 -78
106 -95 106 -6 0 -11 5 -11 11 0 6 -7 9 -15 5 -8 -3 -15 0 -15 7 0 8 28 18 75
26 65 11 81 18 111 47 19 20 37 49 41 65 3 16 9 29 13 29 3 0 7 15 7 33 0 53
23 327 33 399 6 37 10 91 10 120 0 29 6 116 15 193 51 484 55 571 28 680 -10
39 -21 72 -25 75 -3 3 -10 18 -13 33 -4 15 -11 27 -16 27 -5 0 -6 7 -3 15 4 8
1 15 -5 15 -6 0 -11 7 -11 15 0 8 -9 19 -20 25 -11 6 -20 15 -20 21 0 14 -50
63 -72 72 -10 3 -18 11 -18 17 0 5 -7 10 -15 10 -9 0 -18 6 -21 14 -3 8 -17
17 -32 21 -32 8 -42 21 -42 57 0 48 7 56 48 47 75 -16 158 -31 207 -39 28 -4
91 -15 140 -24 50 -9 104 -17 120 -18 17 -1 32 -5 35 -9 9 -13 214 -26 290
-19 72 8 150 34 150 52 0 4 6 8 13 8 7 0 20 9 30 20 9 11 24 20 32 20 8 0 15
6 15 13 0 8 9 22 19 31 11 10 22 29 26 44 4 15 10 29 14 32 16 12 41 122 41
181 0 69 -24 162 -58 222 -12 20 -19 37 -16 37 3 0 -14 19 -38 43 -24 24 -49
42 -55 39 -7 -2 -13 1 -13 7 0 6 -6 11 -14 11 -7 0 -19 6 -25 14 -6 8 -45 22
-85 31 -80 19 -154 17 -286 -8 -41 -8 -106 -20 -145 -26 -38 -7 -90 -17 -115
-22 -25 -6 -70 -15 -100 -19 -30 -5 -95 -15 -144 -24 -87 -15 -90 -15 -108 4
-10 10 -18 24 -18 30 0 6 -12 16 -27 23 -16 6 -30 14 -33 17 -25 30 -180 54
-195 30 -3 -5 -17 -10 -30 -10 -13 0 -30 -6 -37 -13 -7 -7 -25 -18 -40 -24
-16 -7 -28 -17 -28 -23 0 -6 -8 -19 -18 -30 -16 -17 -24 -18 -87 -9 -39 5 -77
12 -85 15 -15 5 -129 26 -240 43 -53 8 -95 16 -244 47 -84 17 -189 17 -236 -1z
m15 -166 l27 -41 96 6 c81 6 126 3 267 -20 170 -28 386 -37 507 -22 58 7 68
13 68 42 0 28 36 76 56 76 10 0 14 -12 14 -37 0 -21 4 -44 9 -51 33 -53 401
-49 735 9 143 25 243 23 300 -6 49 -25 65 -48 50 -73 -9 -14 -33 -18 -155 -23
-79 -3 -233 -16 -341 -28 -176 -19 -236 -21 -565 -17 -246 3 -421 10 -528 21
-88 10 -235 20 -326 24 -161 6 -167 7 -207 35 -23 15 -49 40 -58 55 -10 14
-24 31 -33 37 -13 10 -10 15 19 33 19 11 36 21 36 21 1 0 14 -19 29 -41z
m1084 -735 c3 -3 1 -8 -4 -12 -6 -4 -18 -24 -27 -44 -24 -51 -147 -126 -182
-110 -19 8 -25 21 -31 67 -8 68 6 84 75 85 25 0 54 8 65 16 14 11 32 14 60 9
21 -3 42 -8 44 -11z m-2435 -249 c19 -35 26 -38 118 -59 34 -8 62 -57 54 -92
-7 -28 -41 -44 -92 -44 -51 0 -72 15 -85 63 -13 45 -42 94 -68 115 -14 12 -14
15 8 33 33 27 44 24 65 -16z m4689 0 c11 -23 26 -37 44 -41 83 -19 104 -27
118 -47 22 -32 19 -73 -7 -91 -30 -21 -112 -21 -132 0 -9 8 -21 36 -27 61 -7
26 -26 60 -46 81 l-35 37 22 17 c32 26 44 22 63 -17z m-2201 -1677 c9 -8 20
-45 27 -93 16 -113 15 -131 -11 -149 -23 -16 -114 -22 -134 -8 -6 4 -21 37
-33 74 -15 45 -32 76 -52 92 l-29 25 22 20 c12 12 30 21 40 21 26 0 25 0 55
15 34 18 94 19 115 3z m-413 -934 c-63 -103 -213 -235 -345 -302 -65 -33 -142
-61 -234 -84 -112 -28 -319 -30 -430 -4 -139 33 -340 146 -340 191 0 19 -4 20
98 -16 209 -73 400 -95 552 -65 47 9 104 27 127 39 172 90 217 115 284 158 42
27 87 49 100 49 34 1 95 31 159 79 68 52 78 36 29 -45z m2381 67 c0 -5 -23
-43 -50 -84 -120 -180 -333 -315 -586 -373 -106 -24 -322 -24 -414 1 -79 20
-204 71 -245 99 -68 47 -105 79 -105 92 0 21 21 17 149 -26 146 -50 295 -74
417 -67 93 5 227 38 254 63 9 7 58 35 110 62 52 26 121 65 152 86 33 22 78 42
105 47 32 6 72 26 118 59 68 48 95 59 95 41z"/>
</g>
</svg>
